<?xml version="1.0" encoding="utf-8"?>
<!-- Generator: Adobe Illustrator 18.1.1, SVG Export Plug-In . SVG Version: 6.00 Build 0)  -->
<svg version="1.1" id="Layer_1" xmlns="http://www.w3.org/2000/svg" xmlns:xlink="http://www.w3.org/1999/xlink" x="0px" y="0px"
	 viewBox="0 0 2000 2000" enable-background="new 0 0 2000 2000" xml:space="preserve">
<g>
	<g>
		<path fill="#FFFFFF" d="M1072.8,926.3c0,5.5-2,9.9-6,13.1c-4,3.2-9.5,4.8-16.6,4.8c-6.5,0-12.3-1.2-17.3-3.7v-12
			c4.1,1.8,7.6,3.1,10.5,3.9c2.9,0.8,5.5,1.1,7.8,1.1c2.8,0,5-0.5,6.5-1.6c1.5-1.1,2.3-2.7,2.3-4.9c0-1.2-0.3-2.3-1-3.2
			c-0.7-0.9-1.7-1.8-2.9-2.7s-3.9-2.2-7.9-4.1c-3.7-1.8-6.5-3.4-8.4-5.1c-1.9-1.6-3.4-3.5-4.5-5.6c-1.1-2.1-1.7-4.7-1.7-7.5
			c0-5.4,1.8-9.7,5.5-12.8c3.7-3.1,8.7-4.6,15.2-4.6c3.2,0,6.2,0.4,9.1,1.1c2.9,0.8,5.9,1.8,9.1,3.2l-4.2,10.1
			c-3.3-1.3-6-2.3-8.1-2.8c-2.1-0.5-4.2-0.8-6.3-0.8c-2.5,0-4.3,0.6-5.6,1.7c-1.3,1.1-2,2.6-2,4.5c0,1.1,0.3,2.1,0.8,3
			c0.5,0.9,1.4,1.7,2.5,2.5c1.2,0.8,3.9,2.2,8.2,4.3c5.7,2.7,9.6,5.5,11.8,8.2C1071.7,918.9,1072.8,922.3,1072.8,926.3z"/>
		<path fill="#FFFFFF" d="M1116.5,943.3l-4.4-14.6h-22.3l-4.4,14.6h-14l21.6-61.4h15.9l21.7,61.4H1116.5z M1109,917.8
			c-4.1-13.2-6.4-20.7-6.9-22.4c-0.5-1.7-0.9-3.1-1.1-4.1c-0.9,3.6-3.6,12.4-7.9,26.5H1109z"/>
		<path fill="#FFFFFF" d="M1146.1,943.3h-12.8v-61.2h35.1v10.6h-22.3v15.8h20.7v10.6h-20.7V943.3z"/>
		<path fill="#FFFFFF" d="M1208.4,943.3h-35.2v-61.2h35.2v10.6h-22.3v13.4h20.7v10.6h-20.7v15.8h22.3V943.3z"/>
	</g>
	<g>
		<path fill="#FFFFFF" d="M1264.7,943.3l-4.5-14.9h-22.8l-4.5,14.9h-14.3l22.1-62.9h16.2l22.2,62.9H1264.7z M1257,917.2
			c-4.2-13.5-6.6-21.1-7.1-22.9c-0.5-1.8-0.9-3.2-1.1-4.2c-0.9,3.7-3.6,12.7-8.1,27.1H1257z"/>
		<path fill="#FFFFFF" d="M1325.2,900.2c0,6.7-2.1,11.9-6.3,15.5c-4.2,3.6-10.2,5.4-18,5.4h-5.7v22.3h-13.3v-62.6h20
			c7.6,0,13.4,1.6,17.3,4.9C1323.2,888.8,1325.2,893.7,1325.2,900.2z M1295.2,910.1h4.4c4.1,0,7.1-0.8,9.2-2.4s3-4,3-7
			c0-3.1-0.8-5.4-2.5-6.9c-1.7-1.5-4.4-2.2-8-2.2h-6V910.1z"/>
		<path fill="#FFFFFF" d="M1373.1,900.2c0,6.7-2.1,11.9-6.3,15.5c-4.2,3.6-10.2,5.4-18,5.4h-5.7v22.3h-13.3v-62.6h20
			c7.6,0,13.4,1.6,17.3,4.9C1371.2,888.8,1373.1,893.7,1373.1,900.2z M1343.2,910.1h4.4c4.1,0,7.1-0.8,9.2-2.4s3-4,3-7
			c0-3.1-0.8-5.4-2.5-6.9c-1.7-1.5-4.4-2.2-8-2.2h-6V910.1z"/>
	</g>
	<polygon fill="#E6E6E6" points="404.3,763.8 199.8,881.9 199.8,1118.1 404.3,1236.2 608.9,1118.1 608.9,881.9 	"/>
	<path fill="#5593D7" d="M489.3,1046.8l-27.2-18v-63l-17.2-85.5l-22.5-46.5l-18.1-13.2l-18.1,13.2l-22.5,46.5l-17.2,85.5v63
		l-27.2,18l-19.7,39.1l2.1,29.3l9.8,26.8l13.7-29.6l21-14.7l10.8-1.5l7.7,26.7h39.6h39.6l7.7-26.7l10.8,1.5l21,14.7l13.7,29.6
		l9.8-26.8l2.1-29.3L489.3,1046.8z M428.8,938l-24.4,14.1L379.9,938v-28.2l24.4-14.1l24.4,14.1V938z"/>
	<g>
		<path d="M883.5,1116.9l-6.8-22.3h-1.2c-7.7,9.8-15.5,16.4-23.3,19.9c-7.8,3.5-17.9,5.3-30.1,5.3c-15.7,0-28-4.2-36.9-12.8
			c-8.8-8.5-13.3-20.5-13.3-36.1c0-16.5,6.1-29,18.4-37.4c12.3-8.4,31-13,56.1-13.8l27.7-0.9v-8.6c0-10.2-2.4-17.9-7.2-23
			c-4.8-5.1-12.2-7.6-22.2-7.6c-8.2,0-16.1,1.2-23.6,3.6c-7.5,2.4-14.8,5.3-21.7,8.6l-11-24.3c8.7-4.5,18.2-8,28.6-10.4
			c10.3-2.4,20.1-3.5,29.3-3.5c20.4,0,35.8,4.4,46.2,13.3c10.4,8.9,15.6,22.9,15.6,41.9v108H883.5z M832.8,1093.7
			c12.4,0,22.3-3.5,29.8-10.4c7.5-6.9,11.2-16.6,11.2-29.1v-13.9l-20.6,0.9c-16,0.6-27.7,3.3-35,8c-7.3,4.8-10.9,12.1-10.9,22
			c0,7.2,2.1,12.7,6.4,16.6C817.9,1091.7,824.3,1093.7,832.8,1093.7z"/>
		<path d="M1040.4,1116.9l-4.8-21h-1.7c-4.7,7.4-11.5,13.3-20.2,17.5c-8.7,4.3-18.7,6.4-29.9,6.4c-19.4,0-33.9-4.8-43.5-14.5
			c-9.6-9.7-14.3-24.3-14.3-43.9V956.6h34.3v98.8c0,12.3,2.5,21.5,7.5,27.6c5,6.1,12.9,9.2,23.6,9.2c14.3,0,24.8-4.3,31.5-12.8
			c6.7-8.6,10.1-22.9,10.1-43v-79.9h34.2v160.3H1040.4z"/>
		<path d="M1234.1,1116.9h-34.2v-98.6c0-12.4-2.5-21.6-7.5-27.7c-5-6.1-12.9-9.1-23.7-9.1c-14.4,0-24.9,4.3-31.6,12.8
			c-6.7,8.5-10,22.8-10,42.8v79.9h-34.1V956.6h26.7l4.8,21h1.7c4.8-7.6,11.7-13.5,20.6-17.7c8.9-4.2,18.7-6.2,29.6-6.2
			c38.5,0,57.7,19.6,57.7,58.7V1116.9z"/>
		<path d="M1324.7,1119.8c-24.3,0-42.7-7.1-55.3-21.2c-12.6-14.2-18.9-34.5-18.9-60.9c0-27,6.6-47.7,19.8-62.2
			c13.2-14.5,32.2-21.7,57.2-21.7c16.9,0,32.1,3.1,45.7,9.4l-10.3,27.4c-14.4-5.6-26.3-8.4-35.7-8.4c-27.7,0-41.6,18.4-41.6,55.2
			c0,18,3.5,31.5,10.4,40.5c6.9,9,17,13.6,30.4,13.6c15.2,0,29.5-3.8,43-11.3v29.7c-6.1,3.6-12.6,6.1-19.5,7.7
			C1343,1119,1334.6,1119.8,1324.7,1119.8z"/>
		<path d="M1525.4,1116.9h-34.2v-98.6c0-12.4-2.5-21.6-7.5-27.7c-5-6.1-12.9-9.1-23.7-9.1c-14.3,0-24.8,4.3-31.5,12.8
			c-6.7,8.6-10.1,22.9-10.1,43v79.6h-34.1V880.4h34.1v68.2c0,9.2-0.6,19-1.7,29.4h2.2c4.6-7.7,11.1-13.7,19.3-18
			c8.3-4.3,17.9-6.4,28.9-6.4c38.8,0,58.3,19.6,58.3,58.7V1116.9z"/>
		<path d="M1621.5,1119.8c-24.9,0-44.4-7.3-58.5-21.8c-14.1-14.5-21.1-34.6-21.1-60.1c0-26.2,6.5-46.8,19.6-61.7
			c13-15,31-22.5,53.8-22.5c21.2,0,37.9,6.4,50.1,19.3c12.3,12.9,18.4,30.5,18.4,53v18.4H1577c0.5,15.6,4.7,27.5,12.6,35.9
			c7.9,8.4,19.1,12.5,33.5,12.5c9.5,0,18.3-0.9,26.5-2.7c8.2-1.8,16.9-4.8,26.3-8.9v27.7c-8.3,4-16.7,6.8-25.2,8.4
			C1642.1,1119,1632.4,1119.8,1621.5,1119.8z M1615.2,979.5c-10.8,0-19.5,3.4-26,10.3c-6.5,6.9-10.4,16.9-11.7,30h72.8
			c-0.2-13.2-3.4-23.3-9.6-30.1C1634.6,982.9,1626.1,979.5,1615.2,979.5z"/>
		<path d="M1783.2,953.7c6.9,0,12.5,0.5,17,1.4l-3.3,31.7c-4.8-1.2-9.9-1.7-15.1-1.7c-13.6,0-24.7,4.4-33.1,13.3
			c-8.5,8.9-12.7,20.4-12.7,34.6v83.8h-34.1V956.6h26.7l4.5,28.3h1.7c5.3-9.6,12.2-17.1,20.8-22.8
			C1764.2,956.5,1773.4,953.7,1783.2,953.7z"/>
		<polygon points="670.5,1087.2 670.5,917.5 635.9,897.5 635.9,1116.9 760.2,1116.9 760.2,1087.2 		"/>
	</g>
	<g>
		<path fill="#FFFFFF" d="M1397.5,1134.4c-3,0-5.4,1-7.1,3s-2.6,4.7-2.6,8.2c0,3.6,0.8,6.3,2.5,8.3c1.7,2,4.1,2.9,7.2,2.9
			c1.9,0,4.1-0.3,6.5-1v2.8c-1.9,0.7-4.2,1.1-7,1.1c-4,0-7.1-1.2-9.3-3.7c-2.2-2.4-3.3-5.9-3.3-10.4c0-2.8,0.5-5.3,1.6-7.4
			c1.1-2.1,2.6-3.7,4.6-4.9c2-1.1,4.3-1.7,7-1.7c2.9,0,5.4,0.5,7.5,1.6l-1.3,2.7C1401.6,1134.8,1399.5,1134.4,1397.5,1134.4z"/>
		<path fill="#FFFFFF" d="M1417.4,1138.4c0.9,0,1.7,0.1,2.4,0.2l-0.4,2.9c-0.8-0.2-1.6-0.3-2.2-0.3c-1.7,0-3.1,0.7-4.3,2
			c-1.2,1.3-1.8,3-1.8,5v11h-3.1v-20.5h2.6l0.4,3.8h0.2c0.8-1.3,1.7-2.4,2.7-3.1C1414.9,1138.7,1416.1,1138.4,1417.4,1138.4z"/>
		<path fill="#FFFFFF" d="M1431.1,1159.6c-3,0-5.4-0.9-7.2-2.8c-1.8-1.8-2.6-4.4-2.6-7.7c0-3.3,0.8-5.9,2.4-7.9
			c1.6-1.9,3.8-2.9,6.5-2.9c2.6,0,4.6,0.8,6.1,2.5c1.5,1.7,2.2,3.9,2.2,6.7v2h-14.1c0.1,2.4,0.7,4.2,1.8,5.5
			c1.2,1.2,2.8,1.9,4.9,1.9c2.2,0,4.4-0.5,6.5-1.4v2.8c-1.1,0.5-2.1,0.8-3.1,1C1433.6,1159.5,1432.5,1159.6,1431.1,1159.6z
			 M1430.2,1141c-1.6,0-3,0.5-3.9,1.6c-1,1.1-1.6,2.6-1.7,4.4h10.7c0-2-0.4-3.5-1.3-4.5C1433.1,1141.5,1431.8,1141,1430.2,1141z"/>
		<path fill="#FFFFFF" d="M1455.3,1159.2l-0.6-2.9h-0.1c-1,1.3-2,2.2-3.1,2.6c-1,0.5-2.3,0.7-3.8,0.7c-2,0-3.6-0.5-4.8-1.6
			c-1.2-1-1.7-2.5-1.7-4.5c0-4.1,3.3-6.3,9.9-6.5l3.5-0.1v-1.3c0-1.6-0.3-2.8-1-3.6c-0.7-0.8-1.8-1.1-3.3-1.1
			c-1.7,0-3.6,0.5-5.8,1.6l-1-2.4c1-0.6,2.1-1,3.3-1.3c1.2-0.3,2.4-0.5,3.6-0.5c2.4,0,4.3,0.5,5.4,1.6c1.2,1.1,1.8,2.8,1.8,5.2v14
			H1455.3z M1448.3,1157c1.9,0,3.4-0.5,4.5-1.6c1.1-1.1,1.7-2.5,1.7-4.4v-1.8l-3.1,0.1c-2.5,0.1-4.2,0.5-5.3,1.1
			c-1.1,0.7-1.6,1.7-1.6,3.2c0,1.1,0.3,2,1,2.6C1446.1,1156.7,1447.1,1157,1448.3,1157z"/>
		<path fill="#FFFFFF" d="M1469.7,1157c0.5,0,1.1,0,1.6-0.1c0.5-0.1,0.9-0.2,1.2-0.3v2.4c-0.3,0.2-0.8,0.3-1.5,0.4
			c-0.7,0.1-1.2,0.2-1.8,0.2c-4,0-5.9-2.1-5.9-6.3v-12.2h-2.9v-1.5l2.9-1.3l1.3-4.4h1.8v4.7h5.9v2.4h-5.9v12.1
			c0,1.2,0.3,2.2,0.9,2.8C1467.8,1156.7,1468.6,1157,1469.7,1157z"/>
		<path fill="#FFFFFF" d="M1484,1159.6c-3,0-5.4-0.9-7.2-2.8c-1.8-1.8-2.6-4.4-2.6-7.7c0-3.3,0.8-5.9,2.4-7.9
			c1.6-1.9,3.8-2.9,6.5-2.9c2.6,0,4.6,0.8,6.1,2.5c1.5,1.7,2.2,3.9,2.2,6.7v2h-14.1c0.1,2.4,0.7,4.2,1.8,5.5s2.8,1.9,4.9,1.9
			c2.2,0,4.4-0.5,6.5-1.4v2.8c-1.1,0.5-2.1,0.8-3.1,1C1486.5,1159.5,1485.3,1159.6,1484,1159.6z M1483.1,1141c-1.6,0-3,0.5-3.9,1.6
			c-1,1.1-1.6,2.6-1.7,4.4h10.7c0-2-0.4-3.5-1.3-4.5C1486,1141.5,1484.7,1141,1483.1,1141z"/>
		<path fill="#FFFFFF" d="M1509.8,1156.5h-0.2c-1.4,2.1-3.6,3.1-6.4,3.1c-2.7,0-4.8-0.9-6.2-2.7c-1.5-1.8-2.2-4.4-2.2-7.8
			s0.7-6,2.2-7.9c1.5-1.9,3.6-2.8,6.2-2.8c2.8,0,4.9,1,6.4,3h0.2l-0.1-1.5l-0.1-1.4v-8.3h3.1v29.1h-2.5L1509.8,1156.5z M1503.6,1157
			c2.1,0,3.7-0.6,4.6-1.7c1-1.2,1.4-3,1.4-5.6v-0.7c0-2.9-0.5-5-1.4-6.2c-1-1.2-2.5-1.9-4.6-1.9c-1.8,0-3.2,0.7-4.2,2.1
			c-1,1.4-1.4,3.4-1.4,6c0,2.6,0.5,4.6,1.4,5.9S1501.8,1157,1503.6,1157z"/>
		<path fill="#FFFFFF" d="M1535,1138.4c2.7,0,4.8,0.9,6.3,2.8c1.5,1.8,2.2,4.4,2.2,7.8c0,3.4-0.7,6-2.3,7.8
			c-1.5,1.9-3.6,2.8-6.2,2.8c-1.3,0-2.5-0.2-3.7-0.7c-1.1-0.5-2-1.2-2.8-2.3h-0.2l-0.7,2.6h-2.2v-29.1h3.1v7.1c0,1.6,0,3-0.1,4.3
			h0.1C1530,1139.4,1532.1,1138.4,1535,1138.4z M1534.5,1141c-2.1,0-3.6,0.6-4.6,1.8c-0.9,1.2-1.4,3.3-1.4,6.1
			c0,2.9,0.5,4.9,1.4,6.2c1,1.2,2.5,1.9,4.6,1.9c1.9,0,3.3-0.7,4.3-2.1c0.9-1.4,1.4-3.4,1.4-6c0-2.7-0.5-4.7-1.4-6
			C1537.9,1141.7,1536.5,1141,1534.5,1141z"/>
		<path fill="#FFFFFF" d="M1544.5,1138.7h3.3l4.5,11.7c1,2.7,1.6,4.6,1.8,5.8h0.2c0.2-0.6,0.5-1.7,1-3.3c0.5-1.5,2.2-6.3,5.1-14.2
			h3.3l-8.8,23.3c-0.9,2.3-1.9,3.9-3.1,4.9c-1.2,1-2.6,1.4-4.3,1.4c-0.9,0-1.9-0.1-2.8-0.3v-2.5c0.7,0.1,1.5,0.2,2.3,0.2
			c2.1,0,3.6-1.2,4.6-3.6l1.1-2.9L1544.5,1138.7z"/>
		<path fill="#FFFFFF" d="M1584.9,1159.2l-6.6-21.4h-0.2c0.2,4.4,0.4,7.3,0.4,8.7v12.7h-5.2v-27.3h7.9l6.5,20.9h0.1l6.9-20.9h7.9
			v27.3h-5.4v-12.9c0-0.6,0-1.3,0-2.1c0-0.8,0.1-2.9,0.3-6.4h-0.2l-7,21.4H1584.9z"/>
		<path fill="#FFFFFF" d="M1621.1,1159.2l-1.1-2.8h-0.2c-1,1.2-1.9,2-3,2.5c-1,0.5-2.3,0.7-4,0.7c-2,0-3.6-0.6-4.7-1.7
			c-1.2-1.1-1.7-2.8-1.7-4.9c0-2.2,0.8-3.9,2.3-4.9s3.9-1.6,7-1.7l3.6-0.1v-0.9c0-2.1-1.1-3.2-3.3-3.2c-1.7,0-3.6,0.5-5.9,1.5
			l-1.9-3.9c2.4-1.3,5.1-1.9,8-1.9c2.8,0,5,0.6,6.4,1.8c1.5,1.2,2.2,3.1,2.2,5.6v13.9H1621.1z M1619.4,1149.5l-2.2,0.1
			c-1.7,0-2.9,0.3-3.7,0.9c-0.8,0.6-1.2,1.4-1.2,2.5c0,1.6,0.9,2.4,2.8,2.4c1.3,0,2.4-0.4,3.2-1.1c0.8-0.8,1.2-1.8,1.2-3V1149.5z"/>
		<path fill="#FFFFFF" d="M1629.4,1132.9c0-1.9,1-2.8,3.1-2.8s3.1,0.9,3.1,2.8c0,0.9-0.3,1.6-0.8,2.1c-0.5,0.5-1.3,0.7-2.3,0.7
			C1630.4,1135.7,1629.4,1134.8,1629.4,1132.9z M1635.3,1159.2h-5.7v-20.9h5.7V1159.2z"/>
		<path fill="#FFFFFF" d="M1646.8,1159.6c-2.5,0-4.4-1-5.8-2.9c-1.4-1.9-2.1-4.5-2.1-7.9c0-3.4,0.7-6.1,2.1-8
			c1.4-1.9,3.4-2.9,5.9-2.9c2.6,0,4.6,1,6,3.1h0.2c-0.3-1.6-0.4-2.9-0.4-4.2v-6.7h5.7v29.1h-4.4l-1.1-2.7h-0.2
			C1651.5,1158.6,1649.5,1159.6,1646.8,1159.6z M1648.8,1155.1c1.5,0,2.5-0.4,3.2-1.3c0.7-0.8,1-2.3,1.1-4.3v-0.6
			c0-2.2-0.3-3.9-1-4.8c-0.7-1-1.8-1.5-3.4-1.5c-1.3,0-2.3,0.5-3,1.6c-0.7,1.1-1.1,2.6-1.1,4.7s0.4,3.6,1.1,4.6
			C1646.5,1154.5,1647.5,1155.1,1648.8,1155.1z"/>
		<path fill="#FFFFFF" d="M1680.3,1151.6c0,2.5-0.9,4.4-2.7,5.8c-1.8,1.4-4.2,2.1-7.4,2.1c-2.9,0-5.5-0.5-7.7-1.6v-5.4
			c1.8,0.8,3.4,1.4,4.7,1.7c1.3,0.3,2.4,0.5,3.5,0.5c1.3,0,2.2-0.2,2.9-0.7c0.7-0.5,1-1.2,1-2.2c0-0.5-0.2-1-0.4-1.4
			c-0.3-0.4-0.7-0.8-1.3-1.2c-0.6-0.4-1.8-1-3.5-1.9c-1.7-0.8-2.9-1.5-3.8-2.3c-0.8-0.7-1.5-1.6-2-2.5c-0.5-1-0.7-2.1-0.7-3.4
			c0-2.4,0.8-4.3,2.5-5.7c1.6-1.4,3.9-2.1,6.8-2.1c1.4,0,2.8,0.2,4.1,0.5c1.3,0.3,2.6,0.8,4,1.4l-1.9,4.5c-1.5-0.6-2.7-1-3.6-1.3
			c-1-0.2-1.9-0.4-2.8-0.4c-1.1,0-1.9,0.3-2.5,0.8c-0.6,0.5-0.9,1.2-0.9,2c0,0.5,0.1,1,0.4,1.3c0.2,0.4,0.6,0.7,1.1,1.1
			c0.5,0.4,1.7,1,3.7,1.9c2.6,1.2,4.3,2.4,5.2,3.7C1679.8,1148.3,1680.3,1149.8,1680.3,1151.6z"/>
		<path fill="#FFFFFF" d="M1697.4,1159.2l-1.1-2.8h-0.2c-1,1.2-1.9,2-3,2.5c-1,0.5-2.3,0.7-4,0.7c-2,0-3.6-0.6-4.7-1.7
			c-1.2-1.1-1.7-2.8-1.7-4.9c0-2.2,0.8-3.9,2.3-4.9s3.9-1.6,7-1.7l3.6-0.1v-0.9c0-2.1-1.1-3.2-3.3-3.2c-1.7,0-3.6,0.5-5.9,1.5
			l-1.9-3.9c2.4-1.3,5.1-1.9,8-1.9c2.8,0,5,0.6,6.4,1.8c1.5,1.2,2.2,3.1,2.2,5.6v13.9H1697.4z M1695.8,1149.5l-2.2,0.1
			c-1.7,0-2.9,0.3-3.7,0.9c-0.8,0.6-1.2,1.4-1.2,2.5c0,1.6,0.9,2.4,2.8,2.4c1.3,0,2.4-0.4,3.2-1.1c0.8-0.8,1.2-1.8,1.2-3V1149.5z"/>
		<path fill="#FFFFFF" d="M1717.6,1142.6h-4.9v16.6h-5.7v-16.6h-3.1v-2.7l3.1-1.5v-1.5c0-2.4,0.6-4.1,1.8-5.2c1.2-1.1,3-1.6,5.6-1.6
			c2,0,3.7,0.3,5.2,0.9l-1.5,4.2c-1.1-0.4-2.2-0.5-3.2-0.5c-0.8,0-1.4,0.2-1.8,0.7c-0.4,0.5-0.5,1.1-0.5,1.8v1.3h4.9V1142.6z"/>
		<path fill="#FFFFFF" d="M1729.4,1159.6c-3.4,0-6-0.9-7.9-2.8s-2.8-4.5-2.8-7.9c0-3.5,0.9-6.2,2.6-8.1c1.8-1.9,4.2-2.9,7.3-2.9
			c2.9,0,5.2,0.8,6.9,2.5c1.6,1.7,2.5,4,2.5,7v2.8h-13.5c0.1,1.6,0.5,2.9,1.4,3.8c0.9,0.9,2.2,1.4,3.8,1.4c1.3,0,2.4-0.1,3.6-0.4
			c1.1-0.3,2.3-0.7,3.5-1.3v4.4c-1,0.5-2.1,0.9-3.2,1.1C1732.4,1159.5,1731.1,1159.6,1729.4,1159.6z M1728.6,1142
			c-1.2,0-2.2,0.4-2.8,1.1c-0.7,0.8-1.1,1.9-1.2,3.3h8c0-1.4-0.4-2.5-1.1-3.3C1730.8,1142.4,1729.8,1142,1728.6,1142z"/>
	</g>
</g>
</svg>
